<svg xmlns="http://www.w3.org/2000/svg" xmlns:xlink="http://www.w3.org/1999/xlink" viewBox="0 0 500 349"><defs><style>.a,.af,.ag,.aj,.am,.an,.aq,.av,.aw,.ax,.d,.f,.j,.v,.w,.y{fill:none;}.b{fill:#c6f3ff;}.c{fill:#e1f8ff;}.d,.f{stroke:#3e42b7;}.ag,.an,.aq,.d,.f,.j{stroke-miterlimit:10;}.d{stroke-width:0.7px;}.e{fill:#3e42b7;}.f{stroke-width:0.68px;}.g{fill:#ecebf7;}.h{fill:#4cc0ee;}.i{fill:#edf5f6;}.j{stroke:#1a4766;stroke-width:0.68px;}.k{fill:#000647;}.l{fill:#ffb78f;}.m{fill:#091e6d;}.n{fill:#006aff;}.o{fill:#fff;}.p{fill:url(#a);}.q{fill:#ffa26e;}.r{fill:#ffa17d;}.s{fill:url(#b);}.t{fill:#ff8574;}.u{fill:#000003;}.af,.aj,.av,.aw,.v{stroke:#091e6d;}.af,.aj,.am,.an,.av,.aw,.ax,.v,.w,.y{stroke-linecap:round;}.af,.aj,.am,.av,.aw,.ax,.v,.w,.y{stroke-linejoin:round;}.v{stroke-width:0.49px;}.ax,.w{stroke:#ffa17d;}.w{stroke-width:0.21px;}.x{fill:#ffaf2a;}.y{stroke:#fff;}.z{fill:#00bfff;}.aa{fill:#202a53;}.ab{fill:#8562e6;}.ac{clip-path:url(#c);}.ad{clip-path:url(#d);}.ae{fill:url(#e);}.af{stroke-width:0.36px;}.ag{stroke:#006aff;stroke-width:0.18px;}.ah{clip-path:url(#f);}.ai{fill:url(#g);}.aj{stroke-width:0.35px;}.ak{fill:#ea3696;}.al{fill:#ff45a0;}.am{stroke:#000647;}.an{stroke:#ff45a0;stroke-width:0.25px;}.ao{clip-path:url(#h);}.ap{fill:#005;}.aq{stroke:#8562e6;stroke-width:0.75px;}.ar{fill:#f3a206;}.as{fill:url(#i);}.at{fill:url(#j);}.au{fill:url(#k);}.av{stroke-width:0.42px;}.aw{stroke-width:0.42px;}.ax{stroke-width:0.24px;}.ay{fill:#f7f78b;}</style><linearGradient id="a" x1="55.47" y1="191.1" x2="53.27" y2="197.44" gradientTransform="matrix(-1, 0, 0, 1, 350.77, 0)" gradientUnits="userSpaceOnUse"><stop offset="0.01" stop-color="#006aff"/><stop offset="0.94" stop-color="#0055d3"/></linearGradient><linearGradient id="b" x1="103.2" y1="132.08" x2="103.13" y2="139.81" gradientTransform="matrix(-0.92, -0.38, -0.38, 0.92, 431.3, 86.08)" gradientUnits="userSpaceOnUse"><stop offset="0" stop-color="#fff" stop-opacity="0"/><stop offset="0.79" stop-color="#ffb78f"/></linearGradient><clipPath id="c"><path class="a" d="M199.4,217.6h12.7a222.2,222.2,0,0,1,12.6,33.1c5,17.5,4.6,21,4.6,21L183.8,265a87.2,87.2,0,0,1,6.1-27.7C195.5,223.7,199.4,217.6,199.4,217.6Z"/></clipPath><clipPath id="d"><path class="a" d="M201.2,175.5c1,3.3,1.7,6.7,4.5,8.7a8.2,8.2,0,0,0,3.4,1.2,3.7,3.7,0,0,0,2.9-.6c1.4-1.1,1.7-3.2,1.7-5a20.6,20.6,0,0,0-1.1-6.1,7.4,7.4,0,0,0-1.6-3.2c-1.6-1.7-4.4-2.3-6.7-2.5s-3.4.5-3.7,2.5A12.1,12.1,0,0,0,201.2,175.5Z"/></clipPath><linearGradient id="e" x1="-430.44" y1="-99.27" x2="-430.48" y2="-94.48" gradientTransform="translate(641.9 80.6) rotate(-25.6)" xlink:href="#b"/><clipPath id="f"><path class="a" d="M73,254.1c-.7,3.2-1.1,6.8.3,9.8a5.8,5.8,0,0,0,1.8,2.3,4,4,0,0,0,2.8.7c1.7-.2,2.9-1.9,3.7-3.4a24.2,24.2,0,0,0,2-5.7,7.8,7.8,0,0,0,0-3.4c-.5-2.3-2.7-4.1-4.5-5.3s-3.1-1.2-4.3.4A9.7,9.7,0,0,0,73,254.1Z"/></clipPath><linearGradient id="g" x1="-572.54" y1="-50.85" x2="-572.59" y2="-46.2" gradientTransform="translate(649.7 339.5) rotate(2.9)" xlink:href="#b"/><clipPath id="h"><path class="a" d="M466.6,307.6a110.9,110.9,0,0,0-2.1-60.7l-7.7.7,6.8-3.5a109.4,109.4,0,0,0-10.4-22.2c-3.2.8-6.5,1.4-9.3,1,.5-.8,4-2.9,6.8-4.9a112.8,112.8,0,0,0-10-12.8,39.4,39.4,0,0,1-5,5l2.4-7.7c-6.3-6.4-13.6-11.9-22.1-14.4l-.9-.3a151.7,151.7,0,0,0-.5,24.3c3.7,2.7,7.3,5.8,11.5,7.2l-11.2-3.8a16.4,16.4,0,0,0,.2,2.2,138.6,138.6,0,0,0,4.1,23c2.1.5,3.8.8,4.3.4a31.7,31.7,0,0,1-3.6,2.3,154.3,154.3,0,0,0,9.3,24.5c7.9,16.5,16.4,33.3,34.1,41a2.9,2.9,0,0,0,2.2.3l.3-.2A3.2,3.2,0,0,0,466.6,307.6Z"/></clipPath><linearGradient id="i" x1="375.35" y1="128.02" x2="399.85" y2="128.02" gradientUnits="userSpaceOnUse"><stop offset="0" stop-color="#ffd100"/><stop offset="1" stop-color="#ffae00"/></linearGradient><linearGradient id="j" x1="368.6" y1="129.16" x2="407.8" y2="129.16" xlink:href="#i"/><linearGradient id="k" x1="376.31" y1="100.06" x2="372.88" y2="100.47" gradientTransform="translate(5.5 -27.3) rotate(4.3)" gradientUnits="userSpaceOnUse"><stop offset="0.01" stop-color="#ffb78f"/><stop offset="0.94" stop-color="#ff9b91"/></linearGradient></defs><path class="b" d="M394.8,128.6h69.7c1.9-4.7,2.4-10.3-.1-14.8s-8.7-6.9-13-4.2c-1.5,1-3.1,2.6-4.8,2.1a5.2,5.2,0,0,1-1.8-1.5c-3.3-4.5-4.7-10.5-9.2-13.8s-14.6-1.4-17.1,5c-1.1,3.1-1.4,7.3-4.5,8.5s-4.4-.4-6.6-.7a9,9,0,0,0-9.9,7.5,17.8,17.8,0,0,0-18,11.9Z"/><path class="b" d="M154,148.8H86.3c-1.8-4.6-2.3-10,.1-14.3s8.4-6.8,12.6-4.1c1.5,1,3,2.5,4.7,2a4.1,4.1,0,0,0,1.7-1.5c3.3-4.3,4.6-10.1,8.9-13.3s14.3-1.4,16.6,4.8c1.2,3.1,1.4,7.1,4.5,8.2s4.2-.3,6.4-.6a8.7,8.7,0,0,1,9.6,7.3,17.2,17.2,0,0,1,17.4,11.5Z"/><path class="c" d="M358.1,91.2c-12.8-19.8-30.7-28.4-47.3-22.8-6.7,2.3-13.4,6.8-20.3,6.4-16.2-1.1-27.6-27.9-41.9-41.5-16.5-15.7-38.1-12.2-52.8,8.6-8.6,12-16.6,30.3-27.4,28.2-5.1-.9-9.5-6.6-14.4-9.9-13.1-8.9-37.5,3.7-35.6,25.2.5,6.3,5.9,7.2,9.6,7.2Z"/><path class="d" d="M418.6,233.5a210.3,210.3,0,0,1,32.9-97"/><path class="e" d="M450.8,146.8a6.7,6.7,0,0,1,2.8-.6,2.9,2.9,0,0,1,2.6,1.3,3,3,0,0,1-.7,3.4,6.2,6.2,0,0,1-3.2,1.7c-1.4.4-9.4,2.4-10.2.4S449.5,147.4,450.8,146.8Z"/><path class="e" d="M447.9,156a5.7,5.7,0,0,1,2.9-.3,2.6,2.6,0,0,1,1.2,4.9,7.1,7.1,0,0,1-3.5,1.3c-1.4.2-9.6,1-10.1-1S446.5,156.3,447.9,156Z"/><path class="e" d="M445.2,165.9a10.3,10.3,0,0,1,3,.4,2.7,2.7,0,0,1,0,5.1,6.7,6.7,0,0,1-3.7.5c-1.4-.2-9.6-1.3-9.6-3.4S443.9,166,445.2,165.9Z"/><path class="e" d="M435.6,194.6a7,7,0,0,1,2.9.4,3.2,3.2,0,0,1,1.9,2.2,3.1,3.1,0,0,1-1.9,2.9,7.3,7.3,0,0,1-3.6.4c-1.5-.1-9.6-1.2-9.7-3.3S434.2,194.6,435.6,194.6Z"/><path class="e" d="M436.3,183.8a5.6,5.6,0,0,1,2.2.3,2.1,2.1,0,0,1,0,4,5.2,5.2,0,0,1-2.8.3c-1.1-.1-7.4-1-7.4-2.6S435.2,183.8,436.3,183.8Z"/><path class="e" d="M413.4,209.4a7.9,7.9,0,0,1-1.8-1.4,2,2,0,0,1,1.9-3.4,5.2,5.2,0,0,1,2.6,1c.9.6,6,4.4,5.3,5.8S414.4,209.9,413.4,209.4Z"/><path class="e" d="M415.4,201.6a5.8,5.8,0,0,1-2.1-1,2.2,2.2,0,0,1-.9-2,2.4,2.4,0,0,1,2-1.7,5.3,5.3,0,0,1,2.8.4c1.1.5,6.8,3.1,6.4,4.7S416.4,201.9,415.4,201.6Z"/><path class="e" d="M428.9,205a4.7,4.7,0,0,1,2.3-.4,2.3,2.3,0,0,1,1.9,1.1,2.3,2.3,0,0,1-.7,2.6,4.8,4.8,0,0,1-2.6,1.2c-1.1.2-7.3,1.3-7.8-.2S427.9,205.3,428.9,205Z"/><path class="e" d="M440.8,173.6a5.2,5.2,0,0,1,2.5.3,2.4,2.4,0,0,1,1.6,1.9,2.5,2.5,0,0,1-1.6,2.5,6.3,6.3,0,0,1-3.1.3c-1.2-.1-8.2-1.1-8.2-2.9S439.6,173.6,440.8,173.6Z"/><path class="e" d="M453.4,129.4a10.5,10.5,0,0,1,2-2.2,2.6,2.6,0,0,1,4.2,2.8,7.3,7.3,0,0,1-1.6,3.3c-.9,1.1-6.4,7.3-8.2,6.2S452.7,130.6,453.4,129.4Z"/><path class="e" d="M439.9,138.3a7.2,7.2,0,0,1-.2-2.9,3.3,3.3,0,0,1,1.8-2.3,3,3,0,0,1,3.2,1.3,7.2,7.2,0,0,1,1.1,3.5c.2,1.4.6,9.7-1.5,10.1S440.1,139.7,439.9,138.3Z"/><path class="e" d="M432.9,149.3a7.4,7.4,0,0,1-.8-2.9,2.8,2.8,0,0,1,1.3-2.5,2.9,2.9,0,0,1,3.4.5,7.5,7.5,0,0,1,1.8,3.1c.5,1.4,2.7,9.3.8,10.2S433.5,150.5,432.9,149.3Z"/><path class="e" d="M427.6,158.6a6.8,6.8,0,0,1-1.3-2.7,2.7,2.7,0,0,1,.6-2.7,3,3,0,0,1,3.5-.2,6.3,6.3,0,0,1,2.4,2.7c.8,1.3,4.6,8.6,2.9,9.8S428.4,159.7,427.6,158.6Z"/><path class="e" d="M423.2,168.2a5.9,5.9,0,0,1-1.7-2.4,2.8,2.8,0,0,1,.3-2.8c.7-1,2.2-1.1,3.4-.7a8,8,0,0,1,2.8,2.4c.9,1.1,5.7,7.8,4.2,9.3S424.1,169.2,423.2,168.2Z"/><path class="e" d="M419.6,177.3a6.6,6.6,0,0,1-1.7-2.4,3.1,3.1,0,0,1,.3-2.8,2.9,2.9,0,0,1,3.4-.7,8,8,0,0,1,2.8,2.4c.9,1.1,5.7,7.8,4.2,9.3S420.6,178.3,419.6,177.3Z"/><path class="e" d="M417.3,185.7a8.1,8.1,0,0,1-1.7-2.4,2.7,2.7,0,0,1,3.7-3.6,7.2,7.2,0,0,1,2.8,2.4c.9,1.1,5.7,7.9,4.2,9.4S418.3,186.7,417.3,185.7Z"/><path class="e" d="M414.5,195a9.3,9.3,0,0,1-2.7-1.2,2.6,2.6,0,0,1-1.2-2.5,2.9,2.9,0,0,1,2.5-2.4,7.5,7.5,0,0,1,3.6.5c1.4.5,9,3.6,8.5,5.6S415.9,195.3,414.5,195Z"/><path class="f" d="M182.3,317.8a205,205,0,0,0-20-97.1"/><path class="e" d="M161.7,230.7a7.9,7.9,0,0,0-2.7-1,2.6,2.6,0,0,0-2.5,1,2.7,2.7,0,0,0,.2,3.3,6.8,6.8,0,0,0,2.9,2.1c1.2.6,8.7,3.4,9.7,1.6S162.9,231.4,161.7,230.7Z"/><path class="e" d="M163.4,239.8a8.8,8.8,0,0,0-2.8-.6,3,3,0,0,0-2.4,1.4,3,3,0,0,0,.7,3.2,7.1,7.1,0,0,0,3.2,1.7c1.3.3,9.1,2.1,9.9.2S164.7,240.3,163.4,239.8Z"/><path class="e" d="M164.8,249.7a7,7,0,0,0-2.9.1,2.6,2.6,0,0,0-2,1.8,2.9,2.9,0,0,0,1.4,3.1,7.7,7.7,0,0,0,3.4.8c1.4.1,9.4-.1,9.7-2.1S166.1,249.9,164.8,249.7Z"/><path class="e" d="M170.6,278.4a7.2,7.2,0,0,0-2.9.1,2.8,2.8,0,0,0-2,1.8,3,3,0,0,0,1.4,3.1,8.2,8.2,0,0,0,3.5.8c1.4.1,9.3-.1,9.7-2.1S171.9,278.6,170.6,278.4Z"/><path class="e" d="M171.2,268a5.4,5.4,0,0,0-2.2,0,2.1,2.1,0,0,0-1.5,1.4,2.3,2.3,0,0,0,1,2.4,5.1,5.1,0,0,0,2.7.6c1.1.1,7.2,0,7.5-1.6S172.2,268.1,171.2,268Z"/><path class="e" d="M190.1,295.2a4.5,4.5,0,0,0,1.9-1.1,1.9,1.9,0,0,0,.7-2,2.2,2.2,0,0,0-2.1-1.5,4.8,4.8,0,0,0-2.6.7c-1,.5-6.3,3.5-5.8,5S189.1,295.6,190.1,295.2Z"/><path class="e" d="M189.2,287.5a5.8,5.8,0,0,0,2.1-.7,2.2,2.2,0,0,0,1.1-1.8,2.3,2.3,0,0,0-1.8-1.9,5,5,0,0,0-2.7.1c-1.1.3-6.9,2.1-6.7,3.7S188.1,287.7,189.2,287.5Z"/><path class="e" d="M175.7,289.2a3.8,3.8,0,0,0-2.1-.7,2.3,2.3,0,0,0-1.9.9,2.1,2.1,0,0,0,.3,2.5,5.7,5.7,0,0,0,2.3,1.5c1.1.4,6.9,2.2,7.6.8S176.7,289.6,175.7,289.2Z"/><path class="e" d="M168.1,257.6a7,7,0,0,0-2.5,0,2.3,2.3,0,0,0-1.7,1.6,2.3,2.3,0,0,0,1.2,2.6,6,6,0,0,0,3,.7c1.2.1,8,0,8.2-1.8S169.2,257.7,168.1,257.6Z"/><path class="e" d="M161.2,213.7a6.7,6.7,0,0,0-1.6-2.4,3.2,3.2,0,0,0-2.7-.7,3,3,0,0,0-1.7,2.9,6.6,6.6,0,0,0,1.2,3.3c.7,1.3,5.2,7.8,7.1,7S161.8,214.9,161.2,213.7Z"/><path class="e" d="M173.2,223.8a6.6,6.6,0,0,0,.5-2.8,3,3,0,0,0-1.4-2.3,2.8,2.8,0,0,0-3.3.8,7.8,7.8,0,0,0-1.5,3.2c-.3,1.4-1.7,9.2.2,9.9S172.8,225.1,173.2,223.8Z"/><path class="e" d="M178.6,235.2a8.5,8.5,0,0,0,1.1-2.6,2.7,2.7,0,0,0-4.3-2.6,6.8,6.8,0,0,0-2.1,2.9c-.6,1.2-3.7,8.6-2,9.7S177.9,236.3,178.6,235.2Z"/><path class="e" d="M182.6,244.7a7.9,7.9,0,0,0,1.6-2.3,2.9,2.9,0,0,0-.4-2.7,2.7,2.7,0,0,0-3.3-.6,5.8,5.8,0,0,0-2.6,2.3c-.9,1.1-5.4,7.7-3.9,9.1S181.6,245.7,182.6,244.7Z"/><path class="e" d="M185.6,254.6a8,8,0,0,0,2-2.1,3.1,3.1,0,0,0,0-2.8,2.9,2.9,0,0,0-3.2-1,7,7,0,0,0-2.9,1.9c-1.1,1-6.4,6.9-5.2,8.5S184.6,255.4,185.6,254.6Z"/><path class="e" d="M188,263.7a6.3,6.3,0,0,0,1.9-2.1,2.8,2.8,0,0,0,.1-2.8,2.9,2.9,0,0,0-3.2-1,7.3,7.3,0,0,0-3,1.9c-1,1-6.4,6.9-5.1,8.5S187,264.5,188,263.7Z"/><path class="e" d="M189.2,272a6.3,6.3,0,0,0,1.9-2.1,2.8,2.8,0,0,0,.1-2.8,2.9,2.9,0,0,0-3.2-1,7.3,7.3,0,0,0-3,1.9c-1,1-6.4,6.9-5.1,8.5S188.2,272.8,189.2,272Z"/><path class="e" d="M190.8,281.3a6.5,6.5,0,0,0,2.7-.8,2.8,2.8,0,0,0,1.5-2.3,2.7,2.7,0,0,0-2.1-2.6,6.9,6.9,0,0,0-3.5.1c-1.4.2-9.1,2.3-8.9,4.4S189.4,281.4,190.8,281.3Z"/><ellipse class="g" cx="252.8" cy="311.8" rx="221.1" ry="10.2"/><path class="h" d="M58.3,309.1v-146H158.4V198h-60v24.3h48.9v32.5H98.4v54.3Z"/><path class="h" d="M211.9,163.1h36.6l50.6,146H258.4l-8.9-28.6H210.7L202,309.1H161.1Zm31.2,90.7-12.9-45.3-13.6,45.3Z"/><path class="h" d="M209.5,269.5s-8.2,35.6-8.4,35.9c-2.3,3.7-8.5-26.1-7.6-33.2s10.1-4.7,10.1-4.7Z"/><path class="h" d="M411.2,302.1a74.8,74.8,0,0,1-16.2,6,80.7,80.7,0,0,1-18,2,72.5,72.5,0,0,1-30.2-6.2,75.2,75.2,0,0,1-43.6-68,71.9,71.9,0,0,1,5.6-27.8,73.3,73.3,0,0,1,15.5-23.6,74.6,74.6,0,0,1,23.6-16.4,73.7,73.7,0,0,1,30-6,69.6,69.6,0,0,1,30.2,6.4,76.5,76.5,0,0,1,23.2,17,77,77,0,0,1,20.2,51.2,71.4,71.4,0,0,1-4.8,26A72.9,72.9,0,0,1,433,285l22.2,24.1H417.8Zm-33.8-27.5a28,28,0,0,0,7.7-.9L361,247.4h37.4l8,8.9a39.8,39.8,0,0,0,3.3-9.9,51.9,51.9,0,0,0,1.1-10.5,49,49,0,0,0-2.1-14.3,36.3,36.3,0,0,0-6.3-12.2,31.5,31.5,0,0,0-10.5-8.6,31.8,31.8,0,0,0-40,9.1,37.1,37.1,0,0,0-6,12.3,51.6,51.6,0,0,0-2,14.1,49,49,0,0,0,2.1,14.3,35.9,35.9,0,0,0,6.1,12.2,32.2,32.2,0,0,0,10.4,8.6A33.1,33.1,0,0,0,377.4,274.6Z"/><path class="h" d="M409.7,246.8a36.8,36.8,0,0,1-3.2,9.7L433,285.4a71.4,71.4,0,0,0,13-20.8l-35.7-21.1C410.1,244.6,410,245.7,409.7,246.8Z"/><path class="h" d="M385.6,274.1a27.7,27.7,0,0,1-7.6.8,31.9,31.9,0,0,1-14.7-3.1l2.7,37.9a86.8,86.8,0,0,0,11.6.8,80.7,80.7,0,0,0,18-2,72.1,72.1,0,0,0,16.1-6Z"/><path class="g" d="M26.4,263.1c-1-1.7-2-3.7-1.2-5.4,1.4-3.4,6.4-2,9.5-.1-5.3-5-10.9-10.5-12.5-17.6a4.5,4.5,0,0,1,0-2.8c.6-1.8,2.9-2.5,4.7-2a11.7,11.7,0,0,1,4.6,3.1,38.1,38.1,0,0,1-2.6-30.8,3.2,3.2,0,0,1,1.5-1.9,2.9,2.9,0,0,1,2.6.7,24.6,24.6,0,0,1,9.8,14.2c-.8-3.6,4.6-5.9,7.7-3.9s3.8,6.2,3.9,9.9-.5,7.5,1.1,10.8c-1-2,1.3-4.5,3.5-4.2s3.8,2.4,4.2,4.6-.2,4.5-.8,6.7L60,253.5a4.3,4.3,0,0,0,3.1-.6c3.5,2.5,3.2,7.5,2.7,11.7-1.5,10.7-2.8,23-9.4,31.9C43.6,291.1,33.4,274.5,26.4,263.1Z"/><path class="i" d="M44.5,229.9c-.1-.7-.3-1.9.6-1.9s1,4.1-.3,3.8-.2-1.3-.3-1.9"/><path class="i" d="M59.9,261.8c-.1-.8-.3-1.9.6-1.9s1,4.1-.3,3.8-.2-1.4-.3-1.9"/><path class="i" d="M57,249.2c.4-.7.9-1.8,1.6-1.2s-1.5,4-2.4,3,.6-1.3.8-1.8"/><path class="i" d="M45.8,267.7c.4-.7.9-1.8,1.6-1.2s-1.4,4-2.3,2.9.5-1.2.7-1.7"/><path class="i" d="M35.6,244.5c.7.4,1.7,1,1.2,1.7s-4-1.7-2.9-2.5,1.2.6,1.7.8"/><path class="i" d="M38,272.4c.7.4,1.8.9,1.2,1.7s-3.9-1.7-2.9-2.5,1.2.6,1.7.8"/><path class="i" d="M36.4,222.3c.2.7.6,1.8-.3,1.9s-1.6-3.9-.3-3.7.4,1.2.6,1.8"/><path class="i" d="M50.9,240.6c-.4.7-.9,1.8-1.6,1.2s1.5-3.9,2.4-2.9-.6,1.3-.8,1.7"/><path class="i" d="M49.6,227.8c.2.7.5,1.9-.4,2s-1.6-4-.2-3.8.4,1.3.6,1.8"/><path class="i" d="M38.9,259.8c.7.4,1.8.8,1.2,1.6s-4-1.5-2.9-2.4,1.2.6,1.7.8"/><path class="i" d="M35.8,232.8c.7.3,1.8.8,1.2,1.6s-4-1.5-2.9-2.4,1.2.6,1.7.8"/><path class="i" d="M50.7,280.3c.6.4,1.7.9,1.2,1.6s-4-1.5-3-2.3,1.2.5,1.8.7"/><path class="i" d="M58,271.8c.3-.7.7-1.8,1.5-1.3s-1.1,4.1-2.1,3.1.4-1.2.6-1.8"/><path class="i" d="M50.4,254.5c-.3-.7-.8-1.8.1-2s2.2,3.6.8,3.7-.6-1.2-.9-1.7"/><path class="j" d="M38.9,228.5a450.5,450.5,0,0,1,19.7,80.1"/><path class="k" d="M287.9,174.7c-.1-.5.4-1,.8-1.5a6.8,6.8,0,0,0,1.3-2.7,6.2,6.2,0,0,1,1.7-2.5,2.6,2.6,0,0,1,3.8,3.3C294.4,173.4,290.4,175.2,287.9,174.7Z"/><path class="k" d="M279.3,306.4s-2.5,2.4-8.4,3.8c-1.3.4-2.7-.1-2.7,2.1h7.1l5.9-1.1v1.1h3.2s.9-5.3-.9-5.9Z"/><path class="l" d="M278.9,302.6l.4,3.8h0a3.7,3.7,0,0,0,3.9.1h.3v-3.8Z"/><path class="k" d="M276.3,224.6c-7.2,20.4,2.1,80,2.1,80h5.3s1.1-78.3,9.5-79.8C280.4,224.8,281.8,224.6,276.3,224.6Z"/><path class="m" d="M297.7,306.4s-2.6,2.4-8.4,3.8c-1.3.4-2.7-.1-2.7,2.1h7.1l5.9-1.1v1.1h3.2s.9-5.3-1-5.9Z"/><path class="l" d="M297.3,302.6l.4,3.8h0a3.7,3.7,0,0,0,3.9.1h.2v-3.8Z"/><path class="m" d="M284.7,223.5c.1-.9,14.4-.7,15.6,1.1,3.2,4.9.9,13.4-1.1,17.9-4,17.8,2.8,62.1,2.8,62.1h-4.5S278,257.7,284.7,223.5Z"/><path class="l" d="M263.2,172.8a4.2,4.2,0,0,1,.2,3.3v5.3l-1.2-.5-1.4,1.7a.7.7,0,0,1-1.2-.4c0-1-.1-1.9-.1-1.9l-1.2-4.4s-1.9-7.5,3.2-7.2c-.1-6.1,1.6-5.1,1.6-5.1l.2,5.3Z"/><path class="l" d="M275.9,187.7s-3.6,13.5-6.6,13.8-6.2-21.5-6.2-21.5l-3.5-1s-2.2,32.7,7.1,33.3,10.4-6.3,10.4-6.3Z"/><path class="l" d="M262.1,173.5s1.4-.4,1.6-2.9,1.3-1.7,1.3-1.7-.6,9.6-2.1,10S262.1,173.5,262.1,173.5Z"/><path class="n" d="M276.3,224.8h24.2V188c-6.9-10.5-15.5-7.7-15.5-7.7s-7.9.2-9.1,7.4C275.9,192.9,276.3,224.8,276.3,224.8Z"/><rect class="k" x="268.7" y="205.3" width="7" height="15.5" rx="1.6"/><circle class="o" cx="272.2" cy="208" r="0.9"/><path class="l" d="M276.5,220.5,272,220c-2.4-.1-3.9-3.7-4.3-6.3a.5.5,0,0,1,.7-.5c1.9.6,7.1,2.1,8.2,2.6Z"/><path class="l" d="M292.9,202a11.3,11.3,0,0,1-1.3,5c-3.6,7.6-15.5,8.6-15.5,8.6v4.9s13.1,1.3,22.4-7.2c3.3-3.1,4.5-7.3,4.7-11.3Z"/><path class="p" d="M292.9,202v.3a14.9,14.9,0,0,0-2.7-9.4l10.3-4.9a37.9,37.9,0,0,1,2.7,14Z"/><path class="q" d="M288.4,176l.3,4.8h-.1a4.1,4.1,0,0,1-5.6.1h0v-3.6Z"/><path class="l" d="M290.5,173.7a9.2,9.2,0,0,1-2,3.1,4.7,4.7,0,0,1-3.3,1.6,4.6,4.6,0,0,1-3.6-2.1,8.9,8.9,0,0,1-1.5-4.1,20.4,20.4,0,0,1,2.3-12.6,4.1,4.1,0,0,1,2.2-2.3,3.2,3.2,0,0,1,2.7.2C293.9,160.6,292.8,168.4,290.5,173.7Z"/><path class="r" d="M281.8,160.7a4.3,4.3,0,0,1,1.6-.1c2,.2,6.4.1,8.3,1.4a6.5,6.5,0,0,1,.5,2c-.9,1-3.3,1.8-4.2,2a11.6,11.6,0,0,1-5.8-.7,4.6,4.6,0,0,1-1.6-1.1A20.6,20.6,0,0,1,281.8,160.7Z"/><path class="m" d="M295.7,170.8a3.4,3.4,0,0,1-1,1.6,1.9,1.9,0,0,1-2,.5c-.6-.3-.8-1.3-.9-2a16.1,16.1,0,0,1,.8-7.5c-1.5,2-4.5,1.8-7,1.3a15.2,15.2,0,0,1-4.6-1.8,6.5,6.5,0,0,1-2.9-4.2,3.7,3.7,0,0,1,2.6-3.8l2-.4c.6-.2,1.2-.7,1.8-.9a3.8,3.8,0,0,1,3.4.5c1.8,1.1,3.2,2.9,4.9,4.2a15.8,15.8,0,0,1,3.1,2.7C297.8,163.7,296.7,168,295.7,170.8Z"/><path class="o" d="M286.8,173.1a1.8,1.8,0,0,1-2.1,1.3,3.6,3.6,0,0,1-2.3-1.5,6.5,6.5,0,0,0,4.4.2"/><path class="s" d="M283.7,170.4a.9.9,0,0,0,0,.7.5.5,0,0,0,.5.5l.6-.3c.1-.2.1-.4.2-.6a17,17,0,0,0,.4-2.2.8.8,0,0,0,0-.7C284.8,167.1,283.7,170,283.7,170.4Z"/><path class="k" d="M291.9,171.1a16.2,16.2,0,0,1,.6-7.6c-1.5,2-4.5,1.8-7,1.2a12.3,12.3,0,0,1-4.6-1.8,5.7,5.7,0,0,1-2.7-3.9,7.9,7.9,0,0,0,1.9,2.2,5.1,5.1,0,0,0,1.8.9,15.6,15.6,0,0,0,12.7-.7,39.5,39.5,0,0,0-1.6,5.9c-.1,1-.3,2.1-.4,3.1a8.3,8.3,0,0,1-.1,2.2A2.8,2.8,0,0,1,291.9,171.1Z"/><ellipse class="l" cx="292.2" cy="169.3" rx="1.7" ry="1.5" transform="translate(23.5 373.9) rotate(-67.4)"/><path class="t" d="M287.6,173.7a2.8,2.8,0,0,1,3.7-2.1l-.8,2.1a9.2,9.2,0,0,1-2,3.1l-.3.4-.2-.4A4.3,4.3,0,0,1,287.6,173.7Z"/><path class="t" d="M279.9,169.7l.3.3a4.5,4.5,0,0,1,.6,4.3c-.1,0-.1.1-.2.2a18.9,18.9,0,0,1-.5-2.3A21.1,21.1,0,0,1,279.9,169.7Z"/><ellipse class="u" cx="287.6" cy="169.1" rx="0.8" ry="0.4" transform="translate(45.9 399.1) rotate(-74)"/><path class="v" d="M289.5,168a2.7,2.7,0,0,0-2.5-1.1"/><ellipse class="u" cx="282.3" cy="167.8" rx="0.8" ry="0.4" transform="translate(43.4 393.1) rotate(-74)"/><path class="v" d="M283.5,166.1a1.8,1.8,0,0,0-2.2,0"/><path class="w" d="M292.1,168.4a.7.7,0,0,1,.8.3.8.8,0,0,1,.1.8,1.1,1.1,0,0,1-.7.6"/><path class="x" d="M16.8,197.8l46.5-4.7a8.2,8.2,0,0,0,7.4-8.2V166.3a8.2,8.2,0,0,0-7.6-8.2l-46.4-3.8a8.2,8.2,0,0,0-8.9,8.2v27.1A8.2,8.2,0,0,0,16.8,197.8Z"/><path class="x" d="M58.2,191.1l4.2,12.3a.9.9,0,0,1-1.5.9L46.5,190.5Z"/><circle class="o" cx="29.3" cy="176.4" r="2.7"/><circle class="o" cx="38.6" cy="176.4" r="2.7"/><circle class="o" cx="48" cy="176.4" r="2.7"/><rect class="x" x="237.9" y="121.6" width="47.4" height="17.06" rx="7.5"/><line class="y" x1="244.7" y1="125.9" x2="278.5" y2="125.9"/><line class="y" x1="244.7" y1="130.2" x2="278.5" y2="130.2"/><line class="y" x1="260.4" y1="134.4" x2="278.5" y2="134.4"/><rect class="z" x="183.7" y="140.7" width="46.7" height="16.83" rx="7.4"/><circle class="o" cx="200" cy="149.4" r="1.9"/><circle class="o" cx="214.1" cy="149.4" r="1.9"/><circle class="o" cx="207.1" cy="149.4" r="1.9"/><polygon class="q" points="208.3 183 208.4 191.2 203.4 185.8 203.9 178.1 208.3 183"/><path class="aa" d="M209.9,171c.1.9,1.6,2.1,1.6,2.1l.2-1.1-.4-.9-.8-.4S209.7,170,209.9,171Z"/><path class="q" d="M207.7,191.5s.2,23.4,6.3,23.1,10.2-18.8,10.2-18.8l-2.5-.7-5.9,11.2s.9-3.7-.6-10.4S207.7,191.5,207.7,191.5Z"/><path class="q" d="M221.6,195.5l-1.1-4.4a7.7,7.7,0,0,1,1.8-2.9.8.8,0,0,1,1,0,9.4,9.4,0,0,1,2.6,2,.8.8,0,0,1-.1.8l-.8,1.7-.8,3.1Z"/><path class="o" d="M202.4,185.9c4.3,0,5.3,2.6,5.3,2.6s5.5,4.9,7.5,9.3a6.3,6.3,0,0,1-.1,5.2c-3.4,7.3-2.9,21.4-2.9,21.4H199.6C200.1,213.9,189.3,187.9,202.4,185.9Z"/><path class="q" d="M211.6,225.2c8.1,19,4.4,78.5,4.4,78.5l-3.8-1.3s-8-74.9-15.5-75.5Z"/><path class="q" d="M211.2,304l1.2-2,3.6,1.2a10.9,10.9,0,0,0,.6,3.6c.5,1.2,1.5,3,1.5,3s-6.8-2.6-7.2-3.8A2.2,2.2,0,0,1,211.2,304Z"/><path class="m" d="M211.2,304a3.2,3.2,0,0,0-1.2,2.6c.1,1.5.4,5,.4,5h1.4v-3.3c0-.2,2.9,3.4,3.4,3.4l7.4.4s.6-2.2-3.8-3.1S211.2,304,211.2,304Z"/><path class="l" d="M213.6,226.5c0-.9-12.6-2.4-13.9-.8-3.4,4.3-2.3,12.8-1,17.4,2.2,20.6-9.4,59.6-9.4,59.6l4,.5S215.7,260.3,213.6,226.5Z"/><path class="l" d="M188.5,304l1.3-2,3.5,1.2a12.9,12.9,0,0,0,.5,3.6l1.6,3s-6.8-2.6-7.1-3.8A2.4,2.4,0,0,1,188.5,304Z"/><path class="m" d="M188.5,304a3.2,3.2,0,0,0-1.2,2.6c.2,1.5.4,5,.4,5h1.4v-3.3c0-.2,2.9,3.4,3.4,3.4l7.3.4s.6-2.2-3.7-3.1S188.5,304,188.5,304Z"/><path class="ab" d="M199.4,217.6h12.7a222.2,222.2,0,0,1,12.6,33.1c5,17.5,4.6,21,4.6,21L183.8,265a87.2,87.2,0,0,1,6.1-27.7C195.5,223.7,199.4,217.6,199.4,217.6Z"/><g class="ac"><circle class="o" cx="183.7" cy="215.5" r="0.9"/><circle class="o" cx="188.8" cy="216.4" r="0.9"/><circle class="o" cx="193.8" cy="217.3" r="0.9"/><circle class="o" cx="198.9" cy="218.1" r="0.9"/><circle class="o" cx="204" cy="219" r="0.9"/><circle class="o" cx="209" cy="219.9" r="0.9"/><circle class="o" cx="214.1" cy="220.8" r="0.9"/><circle class="o" cx="219.1" cy="221.7" r="0.9"/><circle class="o" cx="224.2" cy="222.6" r="0.9"/><circle class="o" cx="229.3" cy="223.5" r="0.9"/><circle class="o" cx="234.3" cy="224.3" r="0.9"/><circle class="o" cx="239.4" cy="225.2" r="0.9"/><circle class="o" cx="180.2" cy="219.1" r="0.9"/><circle class="o" cx="185.3" cy="220" r="0.9"/><circle class="o" cx="190.3" cy="220.9" r="0.9"/><circle class="o" cx="195.4" cy="221.8" r="0.9"/><circle class="o" cx="200.5" cy="222.7" r="0.9"/><circle class="o" cx="205.5" cy="223.5" r="0.9"/><circle class="o" cx="210.6" cy="224.4" r="0.9"/><circle class="o" cx="215.6" cy="225.3" r="0.9"/><circle class="o" cx="220.7" cy="226.2" r="0.9"/><circle class="o" cx="225.8" cy="227.1" r="0.9"/><circle class="o" cx="230.8" cy="228" r="0.9"/><circle class="o" cx="235.9" cy="228.9" r="0.9"/><circle class="o" cx="182.3" cy="223.9" r="0.9"/><circle class="o" cx="187.3" cy="224.7" r="0.9"/><circle class="o" cx="192.4" cy="225.6" r="0.9"/><circle class="o" cx="197.4" cy="226.5" r="0.9"/><circle class="o" cx="202.5" cy="227.4" r="0.9"/><circle class="o" cx="207.6" cy="228.3" r="0.9"/><circle class="o" cx="212.6" cy="229.2" r="0.9"/><circle class="o" cx="217.7" cy="230.1" r="0.9"/><circle class="o" cx="222.7" cy="230.9" r="0.9"/><circle class="o" cx="227.8" cy="231.8" r="0.9"/><circle class="o" cx="232.9" cy="232.7" r="0.9"/><circle class="o" cx="237.9" cy="233.6" r="0.9"/><circle class="o" cx="178.8" cy="227.5" r="0.9"/><circle class="o" cx="183.8" cy="228.4" r="0.9"/><circle class="o" cx="188.9" cy="229.3" r="0.9"/><circle class="o" cx="193.9" cy="230.1" r="0.9"/><circle class="o" cx="199" cy="231" r="0.9"/><circle class="o" cx="204.1" cy="231.9" r="0.9"/><circle class="o" cx="209.1" cy="232.8" r="0.9"/><circle class="o" cx="214.2" cy="233.7" r="0.9"/><circle class="o" cx="219.2" cy="234.6" r="0.9"/><circle class="o" cx="224.3" cy="235.5" r="0.9"/><circle class="o" cx="229.4" cy="236.3" r="0.9"/><circle class="o" cx="234.4" cy="237.2" r="0.9"/><circle class="o" cx="180.9" cy="231.9" r="0.9"/><circle class="o" cx="185.9" cy="232.8" r="0.9"/><circle class="o" cx="191" cy="233.7" r="0.9"/><circle class="o" cx="196" cy="234.6" r="0.9"/><circle class="o" cx="201.1" cy="235.5" r="0.9"/><circle class="o" cx="206.1" cy="236.3" r="0.9"/><circle class="o" cx="211.2" cy="237.2" r="0.9"/><circle class="o" cx="216.3" cy="238.1" r="0.9"/><circle class="o" cx="221.3" cy="239" r="0.9"/><circle class="o" cx="226.4" cy="239.9" r="0.9"/><circle class="o" cx="231.4" cy="240.8" r="0.9"/><circle class="o" cx="236.5" cy="241.7" r="0.9"/><circle class="o" cx="177.4" cy="235.5" r="0.9"/><circle class="o" cx="182.4" cy="236.4" r="0.9"/><circle class="o" cx="187.5" cy="237.3" r="0.9"/><circle class="o" cx="192.5" cy="238.2" r="0.9"/><circle class="o" cx="197.6" cy="239.1" r="0.9"/><circle class="o" cx="202.6" cy="240" r="0.9"/><circle class="o" cx="207.7" cy="240.9" r="0.9"/><circle class="o" cx="212.8" cy="241.7" r="0.9"/><circle class="o" cx="217.8" cy="242.6" r="0.9"/><circle class="o" cx="222.9" cy="243.5" r="0.9"/><circle class="o" cx="227.9" cy="244.4" r="0.9"/><circle class="o" cx="233" cy="245.3" r="0.9"/><circle class="o" cx="179.4" cy="240.3" r="0.9"/><circle class="o" cx="184.4" cy="241.2" r="0.9"/><circle class="o" cx="189.5" cy="242.1" r="0.9"/><circle class="o" cx="194.6" cy="242.9" r="0.9"/><circle class="o" cx="199.6" cy="243.8" r="0.9"/><circle class="o" cx="204.7" cy="244.7" r="0.9"/><circle class="o" cx="209.7" cy="245.6" r="0.9"/><circle class="o" cx="214.8" cy="246.5" r="0.9"/><circle class="o" cx="219.9" cy="247.4" r="0.9"/><circle class="o" cx="224.9" cy="248.3" r="0.9"/><circle class="o" cx="230" cy="249.1" r="0.9"/><circle class="o" cx="235" cy="250" r="0.9"/><circle class="o" cx="175.9" cy="243.9" r="0.9"/><circle class="o" cx="181" cy="244.8" r="0.9"/><circle class="o" cx="186" cy="245.7" r="0.9"/><circle class="o" cx="191.1" cy="246.6" r="0.9"/><circle class="o" cx="196.1" cy="247.5" r="0.9"/><circle class="o" cx="201.2" cy="248.3" r="0.9"/><circle class="o" cx="206.2" cy="249.2" r="0.9"/><circle class="o" cx="211.3" cy="250.1" r="0.9"/><circle class="o" cx="216.4" cy="251" r="0.9"/><circle class="o" cx="221.4" cy="251.9" r="0.9"/><circle class="o" cx="226.5" cy="252.8" r="0.9"/><circle class="o" cx="231.5" cy="253.7" r="0.9"/><circle class="o" cx="177.9" cy="248.7" r="0.9"/><circle class="o" cx="183" cy="249.6" r="0.9"/><circle class="o" cx="188" cy="250.5" r="0.9"/><circle class="o" cx="193.1" cy="251.4" r="0.9"/><circle class="o" cx="198.1" cy="252.3" r="0.9"/><circle class="o" cx="203.2" cy="253.2" r="0.9"/><circle class="o" cx="208.3" cy="254" r="0.9"/><circle class="o" cx="213.3" cy="254.9" r="0.9"/><circle class="o" cx="218.4" cy="255.8" r="0.9"/><circle class="o" cx="223.4" cy="256.7" r="0.9"/><circle class="o" cx="228.5" cy="257.6" r="0.9"/><circle class="o" cx="233.6" cy="258.5" r="0.9"/><circle class="o" cx="174.4" cy="252.4" r="0.9"/><circle class="o" cx="179.5" cy="253.2" r="0.9"/><circle class="o" cx="184.5" cy="254.1" r="0.9"/><circle class="o" cx="189.6" cy="255" r="0.9"/><circle class="o" cx="194.6" cy="255.9" r="0.9"/><circle class="o" cx="199.7" cy="256.8" r="0.9"/><circle class="o" cx="204.8" cy="257.7" r="0.9"/><circle class="o" cx="209.8" cy="258.6" r="0.9"/><circle class="o" cx="214.9" cy="259.4" r="0.9"/><circle class="o" cx="219.9" cy="260.3" r="0.9"/><circle class="o" cx="225" cy="261.2" r="0.9"/><circle class="o" cx="230.1" cy="262.1" r="0.9"/><circle class="o" cx="176.4" cy="257.1" r="0.9"/><circle class="o" cx="181.5" cy="258" r="0.9"/><circle class="o" cx="186.6" cy="258.9" r="0.9"/><circle class="o" cx="191.6" cy="259.7" r="0.9"/><circle class="o" cx="196.7" cy="260.6" r="0.9"/><circle class="o" cx="201.7" cy="261.5" r="0.9"/><circle class="o" cx="206.8" cy="262.4" r="0.9"/><circle class="o" cx="211.9" cy="263.3" r="0.9"/><circle class="o" cx="216.9" cy="264.2" r="0.9"/><circle class="o" cx="222" cy="265.1" r="0.9"/><circle class="o" cx="227" cy="265.9" r="0.9"/><circle class="o" cx="232.1" cy="266.8" r="0.9"/><circle class="o" cx="173" cy="260.7" r="0.9"/><circle class="o" cx="178" cy="261.6" r="0.9"/><circle class="o" cx="183.1" cy="262.5" r="0.9"/><circle class="o" cx="188.1" cy="263.4" r="0.9"/><circle class="o" cx="193.2" cy="264.3" r="0.9"/><circle class="o" cx="198.2" cy="265.1" r="0.9"/><circle class="o" cx="203.3" cy="266" r="0.9"/><circle class="o" cx="208.4" cy="266.9" r="0.9"/><circle class="o" cx="213.4" cy="267.8" r="0.9"/><circle class="o" cx="218.5" cy="268.7" r="0.9"/><circle class="o" cx="223.5" cy="269.6" r="0.9"/><circle class="o" cx="228.6" cy="270.5" r="0.9"/></g><path class="l" d="M202.9,238.2a4.3,4.3,0,0,0,1.1,2.3c.8,1.1,3.4,2.9,1.9,3.5l-3.4-.8a5.2,5.2,0,0,1-1.9-2.8l-.5-3.1,1-1.3.6.2A6.7,6.7,0,0,0,202.9,238.2Z"/><path class="l" d="M202.7,239v.3l-.6-.3-1.6-1.5.9-.7,4.2,2.7s-.1.6-1.1.4A5,5,0,0,1,202.7,239Z"/><path class="l" d="M201.5,194.1c6.2,1.8.2,14.8-1.3,19.2a6.9,6.9,0,0,0-.4,2.5l2.8,21.9h-2.5l-6.5-22.3a8.8,8.8,0,0,1-.2-2.8C193.8,207.4,195.3,192.4,201.5,194.1Z"/><path class="q" d="M209,192.3l-7.6-1a1.1,1.1,0,0,1-.4-2.1h0a6.9,6.9,0,0,0,2.9-4.7l.4-2.8,4.4.6-.4,2.9a6.4,6.4,0,0,0,1.6,5.3h0A1.1,1.1,0,0,1,209,192.3Z"/><path class="l" d="M201.2,175.5c1,3.3,1.7,6.7,4.5,8.7a8.2,8.2,0,0,0,3.4,1.2,3.7,3.7,0,0,0,2.9-.6c1.4-1.1,1.7-3.2,1.7-5a20.6,20.6,0,0,0-1.1-6.1,7.4,7.4,0,0,0-1.6-3.2c-1.6-1.7-4.4-2.3-6.7-2.5s-3.4.5-3.7,2.5A12.1,12.1,0,0,0,201.2,175.5Z"/><g class="ad"><path class="ae" d="M211.9,178.4v.5l-.3.3h-.4a.8.8,0,0,1-.1-.4,7.4,7.4,0,0,1-.4-1.4v-.4C211.1,176.4,211.8,178.2,211.9,178.4Z"/><ellipse class="u" cx="208.5" cy="177.3" rx="0.3" ry="0.6" transform="translate(-40.7 64.2) rotate(-16)"/><path class="af" d="M207.1,176.5a1.8,1.8,0,0,1,1.9-.8"/><ellipse class="u" cx="212.6" cy="176.2" rx="0.3" ry="0.6" transform="translate(-12.4 16.1) rotate(-4.2)"/><path class="af" d="M211.3,175.1a2,2,0,0,1,2.1-.4"/><path class="t" d="M204.8,179.5a2.1,2.1,0,0,1,1.9.2,1.5,1.5,0,0,1,.5.6,4,4,0,0,1,.3,3.7l-.5.7-.7.4a3.2,3.2,0,0,1-3.1-.4C201.2,183.1,202.6,180.1,204.8,179.5Z"/><path class="t" d="M212.9,180.9a.9.9,0,0,0,1.8.3,3.6,3.6,0,0,0,.4-1.1c.2-.8.4-3.6-1.2-3S212.6,179.9,212.9,180.9Z"/><path class="o" d="M208.7,181h3.8s-.6,1.9-1.8,2S208.7,181,208.7,181Z"/></g><path class="m" d="M192.8,175.3c-.6,2-.6,4.1-1.9,5.7s-4.1,2.3-6.4,2.9a16.8,16.8,0,0,0-7.7,3.7c-2.1,2-3.4,5.1-2.7,7.9a5.7,5.7,0,0,1,.4,2.2,5.1,5.1,0,0,1-.7,1.7c-1.7,3.1-2.9,7-1,9.9s4.4,3.1,7,2.6a12.1,12.1,0,0,0,6.5-4.4c1.6-2.1,3-4.6,5.5-5.4s3-.3,4.4-.7,4-3.4,4.7-6,1.1-5.3,2.4-7.5a9.1,9.1,0,0,0,1.1-2.2c.3-1.8-1.3-3.3-1.7-5.1s.9-5.6,1.9-7.9.1-7-4.3-5.7A12,12,0,0,0,192.8,175.3Z"/><path class="m" d="M208.2,171.5c.5.1,1,1.4,1.4,2.5l3.4-.2c-.2-1.9-.5-3.9-1.9-5.2a5.2,5.2,0,0,0-1.8-1,6.7,6.7,0,0,0-6.3,1.7c-2.2,2.1-.9,4.3-.2,6.9a23.4,23.4,0,0,1,5.8-2C208.4,173.1,208.2,171.7,208.2,171.5Z"/><path class="m" d="M210.7,167.9a7.6,7.6,0,0,0-3.7-1.6,10.2,10.2,0,0,0-5.5.5,5.2,5.2,0,0,0-1.9,1.4,2.7,2.7,0,0,0-.2,2.3,2.8,2.8,0,0,0,2.5,1.2,13.8,13.8,0,0,0,2.7-.8,4.8,4.8,0,0,1,2.9-.4c.8.2,1.6.9,2.4,1.2C213.2,173.2,212.2,169.2,210.7,167.9Z"/><path class="ag" d="M201,173.7c-2.3.4-4.5,2.4-3.8,4.6s2.2,2.8,1.5,4.2a12.7,12.7,0,0,0-5,2.3,4.7,4.7,0,0,0-1.6,4.9,7.7,7.7,0,0,1,.7,1.6c.6,2.1-1.6,3.8-3.5,4.9"/><path class="ag" d="M184.1,188a11.6,11.6,0,0,0-3.3,1.8,4.9,4.9,0,0,0-1.9,3.2c0,2.2,2,4,2.2,6.2s-1.3,3.9-2.7,5.5"/><path class="k" d="M110.3,310.4l10-2.4c1.4-.2,2.9-.2,3.5.9a11.2,11.2,0,0,1,.5,1.5c-.3.5-13.7,3.3-13.7,3.3h-.1C108.7,312.3,110.3,310.4,110.3,310.4Z"/><polygon class="o" points="124.3 310.4 110.6 313.7 110.9 314.2 124.4 310.9 124.3 310.4"/><polygon class="o" points="114.2 309.5 115.1 309.2 115.2 310.5 114.3 310.8 114.2 309.5"/><polygon class="o" points="116.2 309 117.1 308.8 117.1 310.1 116.2 310.3 116.2 309"/><path class="l" d="M108.7,307.3l1.6,3.1h0a3.3,3.3,0,0,0,2.7-.5v-.2l-.3-3.4Z"/><path class="k" d="M59.5,295.9s2.3,14,16.3,12.5c11.8-1.3,23-17.7,23-17.7l10.1,18,4.3-1.7s-4.5-28.9-11-29.3-28,14.2-28,14.2Z"/><path class="k" d="M141.7,307.5l1.7-10.2c.4-1.3,1.1-2.7,2.3-2.8h1.6c.3.5-2.5,13.9-2.5,13.9h-.1A2.1,2.1,0,0,1,141.7,307.5Z"/><polygon class="o" points="147.3 294.6 144.8 308.5 145.3 308.5 147.8 294.7 147.3 294.6"/><polygon class="o" points="142.4 303.5 142.5 302.6 143.7 303.1 143.6 304 142.4 303.5"/><polygon class="o" points="142.7 301.5 142.9 300.6 144.1 301.1 143.9 302 142.7 301.5"/><path class="l" d="M138.1,307.6h3.6a3.6,3.6,0,0,0,.5-2.7v-.2l-3.3-1Z"/><path class="m" d="M59.8,294.6c-.8.3,1,8.9,7.5,12.4,4.6,2.6,12.2,1.3,16.2-1.6,16.2-3.7,56,2.4,56,2.4v-4.1S93.5,284.6,59.8,294.6Z"/><polygon class="n" points="119 277 111.1 293.7 94 290.6 93.8 291.9 111.9 295.3 120.2 277.5 119 277"/><polygon class="q" points="72.9 258.6 69.8 265.6 73.8 267 76.4 261.9 72.9 258.6"/><path class="l" d="M73,254.1c-.7,3.2-1.1,6.8.3,9.8a5.8,5.8,0,0,0,1.8,2.3,4,4,0,0,0,2.8.7c1.7-.2,2.9-1.9,3.7-3.4a24.2,24.2,0,0,0,2-5.7,7.8,7.8,0,0,0,0-3.4c-.5-2.3-2.7-4.1-4.5-5.3s-3.1-1.2-4.3.4A9.7,9.7,0,0,0,73,254.1Z"/><g class="ah"><path class="ai" d="M80.7,261.5a.8.8,0,0,1-.2.4c-.1.1-.3.2-.4.1s-.2-.2-.2-.3v-.4l.3-1.3c.1-.1.1-.3.3-.3S80.8,261.3,80.7,261.5Z"/><ellipse class="u" cx="78.4" cy="258.9" rx="0.5" ry="0.3" transform="translate(-191.4 279.3) rotate(-77.5)"/><path class="aj" d="M77.5,257.6a1.8,1.8,0,0,1,2,.2"/><ellipse class="u" cx="82.4" cy="259.9" rx="0.5" ry="0.3" transform="translate(-188.4 228.1) rotate(-65.7)"/><path class="aj" d="M81.8,258.4a1.7,1.7,0,0,1,1.9.6"/><path class="t" d="M74.2,259.1a2.3,2.3,0,0,1,1.5,1,3.1,3.1,0,0,1,.2.8,3.9,3.9,0,0,1-1.5,3.3l-.7.4h-.8a3,3,0,0,1-2.5-1.8C69.5,260.5,72.1,258.6,74.2,259.1Z"/><path class="t" d="M80.4,264.1c-.1.4-.1.9.3,1.1a.8.8,0,0,0,1.1-.1,3.1,3.1,0,0,0,.9-.7c.6-.6,2-2.9.3-3.1S80.6,263.1,80.4,264.1Z"/><path class="o" d="M76.8,262.2,80,264s-1.3,1.4-2.4,1S76.8,262.2,76.8,262.2Z"/></g><path class="ak" d="M70.5,244.7a4.4,4.4,0,0,1,1.3-3.1,2.8,2.8,0,0,1,1.7-1.2,3.2,3.2,0,0,1,2.6,1.5,3.4,3.4,0,0,1,2.8-1.4c1,0,2.1.7,2.1,1.6s-.2,1.1.2,1.4h.5a1.5,1.5,0,0,1,1.1,1.6c.1,1.9-1.6,3.5-3.4,3.9S70.8,247.9,70.5,244.7Z"/><path class="al" d="M83.7,256.8a1.7,1.7,0,0,1-.4-1.2l-1,.3c-.6-.3-.5-1.2-.4-1.9s0-.2-.1-.2-.6-.2-.7.1-.2.5-.3.8-1.5.8-2.4.7c-2.4-.4-4.9-.8-6.8-2.4a3,3,0,0,1-1.2-2.5,2.8,2.8,0,0,1,1-1.7c1.8-1.6,4.5-1.8,6.8-1.3a9.6,9.6,0,0,1,5.8,3,6,6,0,0,1,1.4,3.6C85.4,254.8,85,258,83.7,256.8Z"/><path class="al" d="M75.4,255.9a4.7,4.7,0,0,1-3.6,2.4,2,2,0,0,1-1.7-.4l-.3-.8a15.7,15.7,0,0,1,0-5.3,4,4,0,0,1,.7-1.9,3.1,3.1,0,0,1,3.2-.9C77,249.9,76.6,254,75.4,255.9Z"/><path class="l" d="M74.4,256.2a2.9,2.9,0,0,0-.8-1.3,1.6,1.6,0,0,0-1.5-.1,1.3,1.3,0,0,0-.5,1.3,2.5,2.5,0,0,0,.6,1.4,2.4,2.4,0,0,0,.9.8.9.9,0,0,0,1.1-.1c.5-.4.4-1.2.2-1.8"/><path class="am" d="M72.7,247.9a7.4,7.4,0,0,1,8.2.5"/><path class="an" d="M73.3,245a.8.8,0,0,1,.5-1.1c.4-.1.9.3.7.7a1.2,1.2,0,0,1,.8-.4.6.6,0,0,1,.7.2.5.5,0,0,1,.1.7.6.6,0,0,1,.8.1.5.5,0,0,1,.1.7"/><path class="an" d="M78.4,241.7a.7.7,0,0,0-.5.9.6.6,0,0,0,.9.3,1.1,1.1,0,0,0,.2,1.5,1.4,1.4,0,0,0,1.5-.1"/><path class="n" d="M59.4,296.5,79,294.8a45.5,45.5,0,0,1-1-8.8,17.4,17.4,0,0,1,1.5-6.3c-.6-7.5-2.8-14.9-9.4-14.6C58.7,267.1,59.4,296.5,59.4,296.5Z"/><path class="l" d="M71.7,280.2l7.8-.7.3,8.7,13.8-3.4,3.1-1.8a3.6,3.6,0,0,1,2.7-.4l3.7.8c.3,0,.6.4.7.7l1.1,4.1s-1,.6-2.2-2.8c-.9,3.9-6.4.9-6.4.9l-1.9,1.2s-15.2,9.8-18.7,7.6S71.7,280.2,71.7,280.2Z"/><path class="g" d="M449.8,254.6c-.5-1.8-.9-4,.3-5.5s6.7-.1,9.1,2.7c-3.6-6.4-7.4-13.2-6.9-20.5a4.5,4.5,0,0,1,.8-2.7c1.1-1.5,3.4-1.5,5-.5a10.5,10.5,0,0,1,3.6,4.2,37.8,37.8,0,0,1,6.3-30.2c.5-.6,1.2-1.4,2-1.4s1.7.7,2.3,1.4a24.2,24.2,0,0,1,5.3,16.4c.3-3.7,6.2-4.3,8.5-1.5s1.9,7,.9,10.5-2.6,7.1-2.1,10.8c-.3-2.2,2.6-4,4.6-3.1s3,3.4,2.7,5.7-1.5,4.2-2.6,6.1l-5,8.1a4.5,4.5,0,0,0,3.2.3c2.6,3.3.9,8.1-.8,11.9-4.5,9.9-9.3,21.3-18.1,27.9C458.1,286.4,453.2,267.5,449.8,254.6Z"/><path class="i" d="M476.5,228c.2-.7.3-1.9,1.1-1.6s-.1,4.2-1.3,3.5.2-1.3.2-1.9"/><path class="i" d="M482.2,263c.1-.8.2-2,1.1-1.7s-.2,4.3-1.3,3.6.1-1.4.2-1.9"/><path class="i" d="M483,250.1c.6-.5,1.3-1.5,1.9-.7s-2.6,3.4-3.1,2.2.9-1.1,1.2-1.5"/><path class="i" d="M467,264.6c.6-.5,1.3-1.4,1.9-.7s-2.6,3.4-3.1,2.2.9-1.1,1.2-1.5"/><path class="i" d="M463.8,239.5c.6.6,1.4,1.4.7,1.9s-3.3-2.7-2.1-3.2,1,.9,1.4,1.3"/><path class="i" d="M458.2,266.9c.5.6,1.4,1.4.6,1.9s-3.3-2.7-2-3.2,1,.9,1.4,1.3"/><path class="i" d="M471,218.4c0,.8,0,2-.9,1.8s-.4-4.3.8-3.7.1,1.3.1,1.9"/><path class="i" d="M479.6,240.1c-.6.6-1.4,1.5-1.9.7s2.6-3.3,3.1-2.1-.9,1-1.2,1.4"/><path class="i" d="M482,227.4c0,.8,0,2-.9,1.8s-.4-4.2.8-3.7.1,1.4.1,1.9"/><path class="i" d="M462.6,255.1c.6.5,1.5,1.3.7,1.8s-3.3-2.5-2.1-3.1,1,.9,1.4,1.3"/><path class="i" d="M467.4,228.3c.5.5,1.4,1.3.7,1.9s-3.4-2.6-2.2-3.2,1.1.9,1.5,1.3"/><path class="i" d="M468,278.1c.6.6,1.5,1.3.7,1.9s-3.4-2.6-2.1-3.1,1,.9,1.4,1.2"/><path class="i" d="M477.5,272.1c.5-.6,1.2-1.6,1.8-.9s-2.2,3.6-2.9,2.4.8-1.1,1.1-1.5"/><path class="i" d="M475.2,253.3c-.1-.8-.3-2,.6-1.9s1.1,4.1-.2,3.7-.3-1.3-.4-1.8"/><path class="j" d="M471.6,225a446.2,446.2,0,0,1-4.1,82.5"/><g class="ao"><path class="e" d="M415.1,187.8a151.7,151.7,0,0,0-.5,24.3c3.7,2.7,7.3,5.8,11.5,7.2l-11.2-3.8a16.4,16.4,0,0,0,.2,2.2,138.6,138.6,0,0,0,4.1,23c2.1.5,3.8.8,4.3.4a31.7,31.7,0,0,1-3.6,2.3,154.3,154.3,0,0,0,9.3,24.5c7.9,16.5,16.4,33.3,34.1,41a2.9,2.9,0,0,0,2.2.3C450.3,269.3,436,224.6,416,188.1Z"/><path class="ap" d="M465.5,309.2l.3-.2a3.2,3.2,0,0,0,.8-1.4,110.9,110.9,0,0,0-2.1-60.7l-7.7.7,6.8-3.5a109.4,109.4,0,0,0-10.4-22.2c-3.2.8-6.5,1.4-9.3,1,.5-.8,4-2.9,6.8-4.9a112.8,112.8,0,0,0-10-12.8,39.4,39.4,0,0,1-5,5l2.4-7.7c-6.3-6.4-13.6-11.9-22.1-14.4C436,224.6,450.3,269.3,465.5,309.2Z"/><path class="aq" d="M415.4,187.5a23.3,23.3,0,0,1,3.9,5.9c14.7,28.3,25.4,58.3,36.1,88.3l12,33.3"/><path class="aq" d="M439.3,237.3A56.1,56.1,0,0,0,458.8,226"/><path class="aq" d="M443,248.2a38.7,38.7,0,0,0,20.7-11.6"/><path class="aq" d="M436.4,230.8a21.5,21.5,0,0,1-7.4-3.7,249,249,0,0,1-20.5-14.9"/><path class="aq" d="M438,235.3c-11.8-3.3-22-10.7-31.8-18"/><path class="aq" d="M424.8,204.7a35.3,35.3,0,0,0-1.2-20.1"/><path class="aq" d="M427.3,209.9a135.2,135.2,0,0,0,1.7-21"/><path class="aq" d="M447.4,259c-4.6,2.3-9.9,2.6-14.9,1.8a73.5,73.5,0,0,1-14.5-4.4"/><path class="aq" d="M448.7,262.9a39.2,39.2,0,0,1-29.3-2.3"/><path class="aq" d="M451.1,270.2a32.3,32.3,0,0,0,13.8-4,58.3,58.3,0,0,0,11.7-8.7"/><path class="aq" d="M454.3,278.8a26.9,26.9,0,0,1-15.6,2.2,39.9,39.9,0,0,1-14.9-5.4"/></g><path class="l" d="M343.7,216.1l-.9,4h0a3.8,3.8,0,0,0,4.2.5l.3-.2,1.3-4Z"/><path class="k" d="M342.7,219.7s-.4,4.4-9.3,6.4c-1.9.4-1.3.9-1.7,1.7l10.1.7,4.3-4.2,1.1,1.2,3.1-2.6s-.2-4.1-2.4-4.3S342.7,219.7,342.7,219.7Z"/><path class="k" d="M353.7,169.8l-11,46.6,6.8.4s18.3-41.3,20.8-53.7c.5-7-15.5-1-15.5-1Z"/><path class="ar" d="M383.5,123.2c-4.5,11.8-18.1,29.4-18.1,29.4l10-3.3,7.9-15.3S388,111.3,383.5,123.2Z"/><path class="as" d="M384.8,108.9s-.6-1.2,5.8-3.9c8.7,10,9.3,46.1,9.3,46.1l-24.5-1.8C376,128.8,384.8,108.9,384.8,108.9Z"/><path class="l" d="M357.7,147.1a1.3,1.3,0,0,1,.6-1.1l4.2-2.1a4.7,4.7,0,0,1,3.3-.3l4.3.5.5.8.7,3.8-1.4-.4h-2.7s-5.6,4.4-7.8.1c-.5,4.4-1.7,4-1.7,4Z"/><path class="at" d="M392.4,108.2s22.9,21.4,12.9,30.1-36,11.8-36,11.8l-.7-6.7s18.6-4.4,24.1-9.9a3.3,3.3,0,0,0,.6-3.8,50.6,50.6,0,0,0-6.7-8.9"/><path class="ar" d="M392.9,129.9a2.9,2.9,0,0,1-.5,3.4c-2.5,2.5-8.9,4.9-14.5,6.6v.7c5.8-1.7,12.3-4.1,15.1-6.8a3.6,3.6,0,0,0,.6-4.2,56.3,56.3,0,0,0-6.7-9.1l-.6.5A46.4,46.4,0,0,1,392.9,129.9Z"/><path class="ar" d="M399.6,141.6c-10.3,4.7-25.1,7.5-30.3,8.2a1.5,1.5,0,0,0,.1.7c5-.7,19.7-3.3,30.3-8C399.7,142.2,399.6,141.9,399.6,141.6Z"/><polygon class="q" points="379.8 104.4 383.6 110.7 389.4 107.1 383.8 97.8 379.8 104.4"/><path class="l" d="M372.7,103.8c.9,2.1,2.4,4.3,4.7,4.3s2.8-1.7,3.8-3.3c3-4.8,4.9-10.4,3.2-15.9a6.9,6.9,0,0,0-2.3-3.7c-3.9-2.9-8.7,1.3-10,5S371.2,99.8,372.7,103.8Z"/><path class="m" d="M381,100.2a2.3,2.3,0,0,0,2.7,0c-.6,2.2-.1,4.5.3,6.8s.5,4.7-.8,6.5a6,6,0,0,1-4.6,2.4,16.6,16.6,0,0,1-5.4-.6c-1.1-.3-2.3-.7-2.7-1.7a2.7,2.7,0,0,1,.8-2.7c.6-.8,1.4-1.4,2-2.2s-.2-4-.2-4S378.3,106,381,100.2Z"/><path class="au" d="M372.6,98.4a3.8,3.8,0,0,1-2.4,4.1,4.2,4.2,0,0,0,3.4,1l-.9-4.7"/><path class="av" d="M372.3,95.3h-1"/><path class="t" d="M375.1,102a1.5,1.5,0,0,0,.2,1.3,1.5,1.5,0,0,0,1.4.5,3.3,3.3,0,0,0,1.3-.7,4.9,4.9,0,0,0,1.4-1.8,2.2,2.2,0,0,0,0-2.2C377.5,96.8,375.3,100.4,375.1,102Z"/><ellipse class="u" cx="374.3" cy="99.2" rx="0.3" ry="0.7" transform="translate(-6 26.1) rotate(-4)"/><path class="u" d="M371.5,99.2c0,.4.1.8.2.7s.3-.3.3-.7-.2-.6-.4-.6S371.5,98.8,371.5,99.2Z"/><path class="aw" d="M376.8,95.9a2.1,2.1,0,0,0-2.2-.8"/><path class="o" d="M376.5,105.5a1.8,1.8,0,0,1-1.5,1.4,2.4,2.4,0,0,1-1.4-1.1,3.1,3.1,0,0,0,2.9-.3"/><path class="m" d="M374.3,93.7c.6.1,1.5-.2,1.6-.8a3.2,3.2,0,0,0,4.7.3c-.2,2.3.6,5,2.6,6.1a3,3,0,0,0,2.6.2,1.7,1.7,0,0,0,.8-2.2c.9.1,1.7-1,1.5-2a2.5,2.5,0,0,0-2.2-1.6,3.2,3.2,0,0,0-.2-4.1,4.2,4.2,0,0,0-4-1.2,4.5,4.5,0,0,0-3-2.7,7.8,7.8,0,0,0-5.2-.2C368.9,87.2,369,93.4,374.3,93.7Z"/><path class="m" d="M374.8,86.7a3.1,3.1,0,0,1,1.2-1.8,6.1,6.1,0,0,1,5.8-.9,7,7,0,0,1,4.1,4.5,2.6,2.6,0,0,1,0,1.5c-.2.7-1.1,1.1-1.8,1.3C381.5,92.1,373.8,90.9,374.8,86.7Z"/><path class="ag" d="M375.9,88.8a1.4,1.4,0,0,1,1.8-1.2,1.3,1.3,0,0,1,.2,2.1,6.4,6.4,0,0,1,2.1-.9,1.7,1.7,0,0,1,1.9,1,1.1,1.1,0,0,1-1.1,1.5"/><path class="ag" d="M372,88.3a2.2,2.2,0,0,0,1.4,2.9"/><ellipse class="l" cx="382.5" cy="98.8" rx="1.9" ry="1.7" transform="translate(121 394.9) rotate(-63)"/><path class="ax" d="M382.4,97.7a.8.8,0,0,1,.9.4,1.2,1.2,0,0,1,.1,1,1,1,0,0,1-.8.5"/><polygon class="ay" points="390.7 105 392.2 107.3 384.5 118.4 383.5 111.1 390.7 105"/><path class="l" d="M367.7,211.8l1.7,8.6h0a4.1,4.1,0,0,0,4.2-1l.2-.2-2.1-7.9Z"/><path class="m" d="M369.1,219.5s0,4.5-9,6.5c-1.8.4-1.3,1-1.7,1.7l10.2.7,4.2-4.2,1.2,1.2,3-2.6s-1-4.2-3.2-4.4Z"/><path class="m" d="M396.8,150.9a3.4,3.4,0,0,1,3.2,3.2h0v.2a11.9,11.9,0,0,1-9.7,12.1,102.5,102.5,0,0,1-20,2.6,3.5,3.5,0,0,0-3.1,4.8c4.9,11.8,5.9,31.4,6.1,38.6a3.3,3.3,0,0,1-2.5,3.4h-.4a3.5,3.5,0,0,1-4.2-2.2l-15.7-47.5c-2.2-8.8,2.2-13.1,6-13.6l18.5-3.2h.7Z"/><polygon class="m" points="347.5 154.4 341.8 126.6 343.3 126.3 348.7 152.9 370.9 150.6 371 152.1 347.5 154.4"/></svg>