<svg id="visual" viewBox="0 0 900 600" width="900" height="600" xmlns="http://www.w3.org/2000/svg" xmlns:xlink="http://www.w3.org/1999/xlink" version="1.1"><rect x="0" y="0" width="900" height="600" fill="#dde1e7"></rect><path d="M0 376L21.5 381C43 386 86 396 128.8 404.2C171.7 412.3 214.3 418.7 257.2 418.2C300 417.7 343 410.3 385.8 416.7C428.7 423 471.3 443 514.2 459C557 475 600 487 642.8 494C685.7 501 728.3 503 771.2 501.8C814 500.7 857 496.3 878.5 494.2L900 492L900 601L878.5 601C857 601 814 601 771.2 601C728.3 601 685.7 601 642.8 601C600 601 557 601 514.2 601C471.3 601 428.7 601 385.8 601C343 601 300 601 257.2 601C214.3 601 171.7 601 128.8 601C86 601 43 601 21.5 601L0 601Z" fill="#ccd7e2" stroke-linecap="round" stroke-linejoin="miter"></path></svg>