<svg xmlns="http://www.w3.org/2000/svg" viewBox="0 0 1920 1080"><g transform="
          rotate(NaN 960 540) 
          translate(-NaN -NaN)
          scale(NaN)
        "><rect width="1920" height="1080" fill="rgb(41, 44, 47)"></rect><g transform="translate(0, 0)"><path fill="rgb(27, 29, 31)" fill-opacity="1" d="M0,529.415L45.714,525.113C91.429,520.81,182.857,512.206,274.286,510.872C365.714,509.538,457.143,515.475,548.571,516.142C640,516.81,731.429,512.208,822.857,454.775C914.286,397.341,1005.714,287.075,1097.143,277.762C1188.571,268.45,1280,360.091,1371.429,332.004C1462.857,303.917,1554.286,156.103,1645.714,147.721C1737.143,139.338,1828.571,270.387,1874.286,335.911L1920,401.435L1920,1080L1874.286,1080C1828.571,1080,1737.143,1080,1645.714,1080C1554.286,1080,1462.857,1080,1371.429,1080C1280,1080,1188.571,1080,1097.143,1080C1005.714,1080,914.286,1080,822.857,1080C731.429,1080,640,1080,548.571,1080C457.143,1080,365.714,1080,274.286,1080C182.857,1080,91.429,1080,45.714,1080L0,1080Z"></path></g><g transform="translate(0, 540)"><path fill="rgb(14, 15, 16)" fill-opacity="1" d="M0,204.14L45.714,176.151C91.429,148.161,182.857,92.183,274.286,121.078C365.714,149.974,457.143,263.743,548.571,284.257C640,304.771,731.429,232.03,822.857,195.621C914.286,159.212,1005.714,159.135,1097.143,211.911C1188.571,264.687,1280,370.316,1371.429,427.046C1462.857,483.776,1554.286,491.608,1645.714,427.012C1737.143,362.417,1828.571,225.394,1874.286,156.883L1920,88.372L1920,540L1874.286,540C1828.571,540,1737.143,540,1645.714,540C1554.286,540,1462.857,540,1371.429,540C1280,540,1188.571,540,1097.143,540C1005.714,540,914.286,540,822.857,540C731.429,540,640,540,548.571,540C457.143,540,365.714,540,274.286,540C182.857,540,91.429,540,45.714,540L0,540Z"></path></g></g></svg>